<?xml version="1.0" standalone="no"?>
<!DOCTYPE svg PUBLIC "-//W3C//DTD SVG 20010904//EN"
 "http://www.w3.org/TR/2001/REC-SVG-20010904/DTD/svg10.dtd">
<svg version="1.0" xmlns="http://www.w3.org/2000/svg"
 width="256.000000pt" height="256.000000pt" viewBox="0 0 256.000000 256.000000"
 preserveAspectRatio="xMidYMid meet">
<metadata>
Created by potrace 1.11, written by Peter Selinger 2001-2013
</metadata>
<g transform="translate(0.000000,256.000000) scale(0.100000,-0.100000)"
fill="#000000" stroke="none">
<path d="M415 1998 c-2 -7 -11 -58 -19 -113 -62 -407 -41 -854 60 -1277 l26
-108 759 0 759 0 11 27 c42 110 107 448 112 577 l2 69 -110 58 c-178 94 -445
174 -723 216 l-113 17 6 45 c4 25 16 100 28 166 l22 120 70 6 c123 11 445 10
445 -1 0 -6 -7 -45 -16 -86 -8 -42 -14 -77 -12 -78 2 -1 95 1 207 4 l204 5 18
54 c15 44 52 185 74 289 l5 22 -905 0 c-716 0 -907 -3 -910 -12z m817 -815
c84 -87 139 -166 176 -256 30 -73 58 -184 49 -194 -11 -10 -193 -33 -264 -33
l-73 0 0 58 c0 73 18 371 26 440 3 28 9 52 13 52 4 0 36 -30 73 -67z"/>
</g>
</svg>
