<svg width="72" height="72" viewBox="0 0 72 72" fill="none" xmlns="http://www.w3.org/2000/svg">
<path d="M71.4073 20.5655L36.6072 0.165452C36.2412 -0.0481573 35.7912 -0.0553291 35.4205 0.149843L0.620438 19.3499C0.237656 19.5599 0 19.9631 0 20.3998V70.7998C0 71.4634 0.537609 71.9998 1.19995 71.9998H7.2C7.86234 71.9998 8.39995 71.4634 8.39995 70.7998V28.7999H63.5999V70.8C63.5999 71.4636 64.1363 71.9999 64.7999 71.9999H70.7999C71.4635 71.9999 71.9999 71.4636 71.9999 70.8V21.5999C72 21.1738 71.7744 20.7802 71.4073 20.5655ZM69.6 69.5999H66V27.5998C66 26.9375 65.4636 26.3999 64.8 26.3999H7.2C6.53766 26.3999 6.00005 26.9375 6.00005 27.5998V69.5999H2.40005V21.1079L35.982 2.57984L69.6 22.2875V69.5999Z" fill="#FFB800"/>
<path d="M60 55.1992H45.6C44.9364 55.1992 44.4001 55.7356 44.4001 56.3992V70.7992C44.4001 71.4628 44.9364 71.9991 45.6 71.9991H60C60.6636 71.9991 61.2 71.4628 61.2 70.7992V56.3992C61.2 55.7356 60.6636 55.1992 60 55.1992ZM58.7999 69.5992H46.8V57.5993H58.7999V69.5992Z" fill="#61C325"/>
<path d="M54 56.3994V59.9994H51.5999V56.3994H49.1999V61.1994C49.1999 61.863 49.7362 62.3993 50.3998 62.3993H55.1998C55.8634 62.3993 56.3997 61.863 56.3997 61.1994V56.3994H54Z" fill="#61C325"/>
<path d="M45.6001 55.1992H31.2001C30.5377 55.1992 30.0001 55.7356 30.0001 56.3992V70.7992C30.0001 71.4628 30.5377 71.9991 31.2001 71.9991H45.6001C46.2637 71.9991 46.8 71.4628 46.8 70.7992V56.3992C46.8 55.7356 46.2637 55.1992 45.6001 55.1992ZM44.4 69.5992H32.4V57.5993H44.4V69.5992Z" fill="#61C325"/>
<path d="M39.6 56.3994V59.9994H37.1999V56.3994H34.7999V61.1994C34.7999 61.863 35.3375 62.3993 35.9998 62.3993H40.7998C41.4634 62.3993 41.9998 61.863 41.9998 61.1994V56.3994H39.6Z" fill="#61C325"/>
<path d="M60 40.7998H45.6C44.9364 40.7998 44.4001 41.3361 44.4001 41.9998V56.3998C44.4001 57.0634 44.9364 57.5997 45.6 57.5997H60C60.6636 57.5997 61.2 57.0634 61.2 56.3998V41.9998C61.2 41.3361 60.6636 40.7998 60 40.7998ZM58.7999 55.1998H46.8V43.1998H58.7999V55.1998Z" fill="#61C325"/>
<path d="M54 41.9995V45.5995H51.5999V41.9995H49.1999V46.7995C49.1999 47.4631 49.7362 47.9994 50.3998 47.9994H55.1998C55.8634 47.9994 56.3997 47.4631 56.3997 46.7995V41.9995H54Z" fill="#61C325"/>
<path d="M64.8 35.9995H7.20001V38.3995H64.8V35.9995Z" fill="#FFB800"/>
<path d="M64.8 31.1997H7.20001V33.5998H64.8V31.1997Z" fill="#FFB800"/>
<path d="M42 16.7998H30.0001C29.3378 16.7998 28.8001 17.3374 28.8001 17.9998V22.7997C28.8001 23.462 29.3378 23.9997 30.0001 23.9997H42C42.6637 23.9997 43.2 23.462 43.2 22.7997V17.9998C43.2 17.3374 42.6637 16.7998 42 16.7998ZM40.8 21.5999H31.1999V19.1999H40.8V21.5999Z" fill="#FFB800"/>
</svg>
