<svg width="72" height="72" viewBox="0 0 72 72" fill="none" xmlns="http://www.w3.org/2000/svg">
<g clip-path="url(#clip0)">
<path d="M38.239 56.3984C36.1307 56.3984 34.4151 58.114 34.4151 60.2223C34.4151 62.3305 36.1307 64.0462 38.239 64.0462C40.3472 64.0462 42.0629 62.3305 42.0629 60.2223C42.0629 58.114 40.3472 56.3984 38.239 56.3984ZM38.239 61.497C37.5354 61.497 36.9644 60.926 36.9644 60.2223C36.9644 59.5187 37.5354 58.9477 38.239 58.9477C38.9426 58.9477 39.5136 59.5187 39.5136 60.2223C39.5136 60.926 38.9426 61.497 38.239 61.497Z" fill="#FFB800"/>
<path d="M38.239 51.2993C33.3189 51.2993 29.3166 55.3029 29.3166 60.2218C29.3166 65.1406 33.3189 69.1442 38.239 69.1442C43.1579 69.1442 47.1615 65.1406 47.1615 60.2218C47.1615 55.3029 43.1579 51.2993 38.239 51.2993ZM38.239 66.5949C34.7249 66.5949 31.8659 63.7359 31.8659 60.2218C31.8659 56.7076 34.7249 53.8486 38.239 53.8486C41.7532 53.8486 44.6122 56.7076 44.6122 60.2218C44.6122 63.7359 41.7532 66.5949 38.239 66.5949Z" fill="#FFB800"/>
<path d="M31.8659 38.5483H29.3166V60.2171H31.8659V38.5483Z" fill="#FFB800"/>
<path d="M15.3084 7.48269C14.1981 5.42415 12.0543 4.14192 9.71281 4.13672H0V6.68599H9.71014C11.1136 6.68978 12.3983 7.45836 13.065 8.69475L37.1172 53.1794L39.3605 51.9659L15.3084 7.48269Z" fill="#FFB800"/>
<path d="M70.7777 46.3623L45.2787 60.3774L46.5062 62.6106L72.0051 48.5955L70.7777 46.3623Z" fill="#FFB800"/>
<path d="M55.9181 23.9023L44.4439 3.50692C44.2783 3.21122 44.0029 2.99454 43.6766 2.90398C43.3502 2.8109 43.0036 2.85294 42.7079 3.01999L22.3125 14.4942C21.6994 14.8397 21.4815 15.6171 21.8268 16.2302L33.3011 36.6269C33.4667 36.9226 33.7434 37.1392 34.0684 37.2298C34.1819 37.2604 34.2979 37.2769 34.4126 37.2769C34.6293 37.2769 34.8447 37.2208 35.0372 37.1113L55.4326 25.6383C56.0469 25.293 56.2636 24.5154 55.9181 23.9023ZM34.8969 34.2663L24.6731 16.0913L42.8481 5.86622L53.0706 24.0425L34.8969 34.2663Z" fill="#61C325"/>
<path d="M40.4058 13.0467L37.2179 7.52758C36.8661 6.91831 36.0847 6.70796 35.4767 7.06103L29.9576 10.2475C29.3484 10.5994 29.1393 11.3782 29.4911 11.9887L32.6776 17.5078C32.9134 17.917 33.3417 18.1452 33.7826 18.1452C33.9993 18.1452 34.2185 18.0904 34.4186 17.9744L39.939 14.7879C40.2322 14.6195 40.4463 14.3417 40.5329 14.0142C40.62 13.6866 40.5754 13.3386 40.4058 13.0467ZM34.2493 15.1295L32.3375 11.818L35.649 9.90614L37.561 13.2177L34.2493 15.1295Z" fill="#61C325"/>
<path d="M67.386 44.2981L55.9118 23.9027C55.5676 23.2896 54.7914 23.0704 54.1771 23.417L33.7817 34.89C33.1686 35.2354 32.9507 36.0129 33.296 36.6259L44.7702 57.0226C44.9359 57.3183 45.2113 57.535 45.5376 57.6255C45.651 57.6562 45.7658 57.6726 45.8818 57.6726C46.0985 57.6726 46.3139 57.6178 46.5038 57.5083L66.9005 46.034C67.1962 45.8684 67.4129 45.5929 67.5034 45.2667C67.5938 44.9418 67.5531 44.5925 67.386 44.2981ZM46.3673 54.662L36.1435 36.487L54.3185 26.2632L64.5423 44.4383L46.3673 54.662Z" fill="#61C325"/>
<path d="M51.8699 33.4498L48.6832 27.9307C48.3301 27.3202 47.5488 27.1111 46.942 27.4641L41.4229 30.6507C40.8137 31.0025 40.6046 31.7813 40.9564 32.3918L44.1429 37.9109C44.3787 38.3201 44.807 38.5483 45.248 38.5483C45.4647 38.5483 45.6839 38.4935 45.884 38.3775L51.403 35.191C52.0126 34.8392 52.2217 34.0603 51.8699 33.4498ZM45.7134 35.5325L43.8015 32.221L47.113 30.3091L49.0249 33.6206L45.7134 35.5325Z" fill="#61C325"/>
</g>
<defs>
<clipPath id="clip0">
<rect width="72" height="72" fill="white"/>
</clipPath>
</defs>
</svg>
