<svg width="72" height="72" viewBox="0 0 72 72" fill="none" xmlns="http://www.w3.org/2000/svg">
<g clip-path="url(#clip0)">
<path d="M69.0084 31.3656C68.6421 31.1505 68.1894 31.145 67.818 31.3512L64.5156 33.186L63.6 1.1664C63.5818 0.51675 63.0498 -0.00029987 62.4 1.30482e-07H54C53.3502 -0.00029987 52.8181 0.51675 52.8 1.1664L51.6816 40.32L48 42.36V32.4C47.9997 31.7373 47.4621 31.2003 46.7994 31.2006C46.596 31.2008 46.3959 31.2525 46.218 31.3512L26.4 42.36V32.4C26.3997 31.7373 25.8621 31.2003 25.1994 31.2006C24.996 31.2008 24.7959 31.2525 24.618 31.3512L3.01796 43.3512C2.63681 43.5625 2.40011 43.9641 2.39996 44.4V70.8C2.39996 71.4627 2.93726 72 3.59996 72H68.4C69.0627 72 69.6 71.4627 69.6 70.8V32.4C69.6 31.9748 69.375 31.5812 69.0084 31.3656ZM55.1664 2.4H61.2336L61.3032 4.8H55.098L55.1664 2.4ZM55.0284 7.2H61.3716L62.1516 34.4988L54.12 38.9592L55.0284 7.2ZM34.8 69.6H27.6V63.6H34.8V69.6ZM44.4 69.6H37.2V63.6H44.4V69.6ZM67.2 69.6H46.8V62.4C46.8 61.7373 46.2627 61.2 45.6 61.2H26.4C25.7373 61.2 25.2 61.7373 25.2 62.4V69.6H4.79996V45.1068L24 34.44V44.4C24.0003 45.0627 24.5379 45.5997 25.2006 45.5994C25.404 45.5993 25.6041 45.5475 25.782 45.4488L45.6 34.44V44.4C45.6003 45.0627 46.1379 45.5997 46.8006 45.5994C47.004 45.5993 47.2041 45.5475 47.382 45.4488L58.6992 39.162L63.96 36.24L67.2 34.44V69.6Z" fill="#FFB800"/>
<path d="M19.2 48H9.59996C8.93726 48 8.39996 48.5373 8.39996 49.2V54C8.39996 54.6627 8.93726 55.2 9.59996 55.2H19.2C19.8627 55.2 20.4 54.6627 20.4 54V49.2C20.4 48.5373 19.8627 48 19.2 48ZM18 52.8H10.8V50.4H18V52.8Z" fill="#61C325"/>
<path d="M40.8 48H31.2C30.5373 48 30 48.5373 30 49.2V54C30 54.6627 30.5373 55.2 31.2 55.2H40.8C41.4627 55.2 42 54.6627 42 54V49.2C42 48.5373 41.4627 48 40.8 48ZM39.6 52.8H32.4V50.4H39.6V52.8Z" fill="#61C325"/>
<path d="M62.4 48H52.8C52.1373 48 51.6 48.5373 51.6 49.2V54C51.6 54.6627 52.1373 55.2 52.8 55.2H62.4C63.0627 55.2 63.6 54.6627 63.6 54V49.2C63.6 48.5373 63.0627 48 62.4 48ZM61.2 52.8H54V50.4H61.2V52.8Z" fill="#61C325"/>
</g>
<defs>
<clipPath id="clip0">
<rect width="72" height="72" fill="white"/>
</clipPath>
</defs>
</svg>
