<svg width="72" height="72" viewBox="0 0 72 72" fill="none" xmlns="http://www.w3.org/2000/svg">
<g clip-path="url(#clip0)">
<path d="M26.5199 27.8438C25.7434 27.8438 25.1136 28.4735 25.1136 29.25V46.9684C25.1136 47.745 25.7434 48.3747 26.5199 48.3747C27.2964 48.3747 27.9261 47.745 27.9261 46.9684V29.25C27.9261 28.4735 27.2964 27.8438 26.5199 27.8438Z" fill="#61C325"/>
<path d="M36.7699 27.8438C35.9934 27.8438 35.3636 28.4735 35.3636 29.25V46.9684C35.3636 47.745 35.9934 48.3747 36.7699 48.3747C37.5464 48.3747 38.1762 47.745 38.1762 46.9684V29.25C38.1762 28.4735 37.5464 27.8438 36.7699 27.8438Z" fill="#61C325"/>
<path d="M46.0199 27.8438C45.2434 27.8438 44.6136 28.4735 44.6136 29.25V46.9684C44.6136 47.745 45.2434 48.3747 46.0199 48.3747C46.7964 48.3747 47.4261 47.745 47.4261 46.9684V29.25C47.4261 28.4735 46.7964 27.8438 46.0199 27.8438Z" fill="#61C325"/>
<path d="M56.2699 27.8438C55.4934 27.8438 54.8636 28.4735 54.8636 29.25V46.9684C54.8636 47.745 55.4934 48.3747 56.2699 48.3747C57.0464 48.3747 57.6761 47.745 57.6761 46.9684V29.25C57.6761 28.4735 57.0464 27.8438 56.2699 27.8438Z" fill="#61C325"/>
<path d="M66.3528 53.427L71.9778 22.7518C72.053 22.3413 71.9421 21.9185 71.675 21.598C71.4078 21.2774 71.012 21.0919 70.5946 21.0919H64.4071V8.99998C64.4071 8.22345 63.7774 7.59374 63.0009 7.59374H37.4072V1.40625C37.4072 0.629718 36.7774 0 36.0009 0H21.3759C20.5994 0 19.9697 0.629718 19.9697 1.40625V21.0919H12.5066L10.3868 8.76176C10.2708 8.08691 9.68566 7.59374 9.00096 7.59374H1.40722C0.630694 7.59374 0.000976562 8.22345 0.000976562 8.99998V14.625C0.000976562 15.4015 0.630694 16.0312 1.40722 16.0312H8.78271L15.1884 53.2934V55.1242C15.1884 59.1989 18.2991 62.5607 22.2703 62.9601C21.6989 63.8691 21.3669 64.9432 21.3669 66.0938C21.3669 69.3505 24.0164 72 27.2732 72C30.5299 72 33.1794 69.3505 33.1794 66.0938C33.1794 64.9601 32.8577 63.9004 32.3016 63H49.2624C48.7063 63.9004 48.3846 64.9601 48.3846 66.0938C48.3846 69.3505 51.0341 72 54.2908 72C57.5476 72 60.1971 69.3505 60.1971 66.0938C60.1971 64.9601 59.8753 63.9004 59.3193 63H64.9696C65.7461 63 66.3758 62.3703 66.3758 61.5938C66.3758 60.8172 65.7461 60.1875 64.9696 60.1875H23.0643C20.2723 60.1874 18.0009 57.916 18.0009 55.1241V54.5796H64.9696C65.6484 54.5796 66.2304 54.0947 66.3528 53.427ZM2.81347 13.2187V10.4062H7.81577L8.29924 13.2187H2.81347ZM54.2911 62.9999C55.997 62.9999 57.3849 64.3877 57.3849 66.0936C57.3849 67.7995 55.997 69.1874 54.2911 69.1874C52.5852 69.1874 51.1974 67.7995 51.1974 66.0936C51.1974 64.3877 52.5852 62.9999 54.2911 62.9999ZM27.2733 62.9999C28.9792 62.9999 30.3671 64.3877 30.3671 66.0936C30.3671 67.7995 28.9792 69.1874 27.2733 69.1874C25.5674 69.1874 24.1796 67.7995 24.1796 66.0936C24.1796 64.3877 25.5674 62.9999 27.2733 62.9999ZM37.425 16.0312H49.6438C50.4203 16.0312 51.05 15.4015 51.05 14.625C51.05 13.8484 50.4203 13.2187 49.6438 13.2187H37.425V10.4062H61.5946V21.0919H37.425V16.0312ZM22.7822 2.81249H34.5947V21.0919H22.7822V2.81249ZM63.7978 51.7671H17.7799L12.9901 23.9044H68.9071L63.7978 51.7671Z" fill="#FFB800"/>
</g>
<defs>
<clipPath id="clip0">
<rect width="72" height="72" fill="white"/>
</clipPath>
</defs>
</svg>
