<svg width="48" height="48" viewBox="0 0 48 48" fill="none" xmlns="http://www.w3.org/2000/svg">
<g clip-path="url(#clip0)">
<path d="M46.7405 37.0304L37.0251 30.5514C35.7922 29.7358 34.1396 30.0041 33.2281 31.1681L30.3981 34.8067C30.0344 35.2863 29.3733 35.4254 28.8471 35.1331L28.3088 34.8363C26.5243 33.8636 24.3038 32.6527 19.8301 28.1773C15.3563 23.702 14.1429 21.4799 13.1702 19.6986L12.8751 19.1603C12.5788 18.6342 12.7152 17.9703 13.195 17.6037L16.8312 14.7746C17.9946 13.863 18.2634 12.2108 17.4487 10.9775L10.9697 1.26213C10.1348 0.00625312 8.45971 -0.370754 7.16719 0.406225L3.10457 2.84664C1.82807 3.5971 0.891555 4.81248 0.491396 6.23811C-0.971543 11.5685 0.129011 20.768 13.6806 34.3212C24.4607 45.1003 32.4859 47.9991 38.0019 47.9991C39.2713 48.0046 40.5358 47.8394 41.7613 47.508C43.1872 47.1084 44.4028 46.1717 45.1528 44.8949L47.5957 40.8347C48.3738 39.5419 47.9969 37.8658 46.7405 37.0304ZM46.2174 40.0139L43.7801 44.0766C43.2416 44.9982 42.3673 45.6758 41.3405 45.9675C36.4196 47.3185 27.8225 46.1995 14.8124 33.1894C1.80229 20.1793 0.683367 11.5829 2.03439 6.66133C2.32647 5.63323 3.00493 4.75783 3.92767 4.21847L7.99028 1.78124C8.55111 1.44379 9.27812 1.60736 9.64041 2.15234L13.1599 7.43634L16.1139 11.8669C16.4677 12.4018 16.3514 13.1188 15.8468 13.5147L12.2097 16.3438C11.1029 17.1901 10.7868 18.7215 11.4683 19.9369L11.7571 20.4616C12.7794 22.3365 14.0503 24.669 18.6904 29.3083C23.3306 33.9476 25.6623 35.2187 27.5363 36.2409L28.0618 36.5304C29.2771 37.2118 30.8086 36.8958 31.6549 35.789L34.484 32.1519C34.88 31.6475 35.5967 31.5314 36.1318 31.8848L45.8464 38.3638C46.3917 38.7258 46.5553 39.4532 46.2174 40.0139Z" fill="#FFB800"/>
<path d="M27.1986 8.00424C34.7051 8.01258 40.7882 14.0958 40.7966 21.6023C40.7966 22.044 41.1547 22.4021 41.5965 22.4021C42.0382 22.4021 42.3963 22.044 42.3963 21.6023C42.387 13.2126 35.5883 6.41373 27.1986 6.40454C26.7568 6.40454 26.3987 6.76261 26.3987 7.20439C26.3987 7.64617 26.7568 8.00424 27.1986 8.00424Z" fill="#61C325"/>
<path d="M27.1986 12.8036C32.0556 12.8093 35.9916 16.7453 35.9973 21.6023C35.9973 22.0441 36.3555 22.4021 36.7972 22.4021C37.2389 22.4021 37.597 22.0441 37.597 21.6023C37.5904 15.8621 32.9387 11.2104 27.1986 11.2039C26.7568 11.2039 26.3987 11.5619 26.3987 12.0037C26.3987 12.4455 26.7568 12.8036 27.1986 12.8036Z" fill="#61C325"/>
<path d="M27.1986 17.6029C29.4063 17.6055 31.1953 19.3945 31.198 21.6023C31.198 22.0441 31.5562 22.4022 31.9979 22.4022C32.4396 22.4022 32.7977 22.0441 32.7977 21.6023C32.7942 18.5115 30.2894 16.0066 27.1986 16.0032C26.7568 16.0032 26.3987 16.3612 26.3987 16.803C26.3987 17.2448 26.7568 17.6029 27.1986 17.6029Z" fill="#61C325"/>
</g>
<defs>
<clipPath id="clip0">
<rect width="48" height="48" fill="white"/>
</clipPath>
</defs>
</svg>
