<svg width="48" height="48" viewBox="0 0 48 48" fill="none" xmlns="http://www.w3.org/2000/svg">
<g clip-path="url(#clip0)">
<path d="M20.7808 40.0001C20.5759 35.9998 18.3688 32.3722 14.9104 30.3513L9.384 24.2113C8.6407 23.3691 7.4879 23.0149 6.4 23.2945V12.8001C6.4 11.0328 4.9673 9.6001 3.2 9.6001C1.4327 9.6001 0 11.0328 0 12.8001V27.9417C0.0008 29.1658 0.3127 30.3696 0.9064 31.4401L8 44.2073V47.2001C8 47.6419 8.3582 48.0001 8.8 48.0001H20C20.4418 48.0001 20.8 47.6419 20.8 47.2001V40.0001H20.7808ZM19.2 46.4001H9.6V44.0001C9.6 43.864 9.5653 43.7302 9.4992 43.6113L2.3048 30.6617C1.8434 29.8293 1.6009 28.8934 1.6 27.9417V12.8001C1.6 11.9164 2.3163 11.2001 3.2 11.2001C4.0837 11.2001 4.8 11.9164 4.8 12.8001V24.2825C3.799 25.4458 3.822 27.1727 4.8536 28.3089L11.408 35.5201L12.592 34.4433L6.0376 27.2329C5.5152 26.6583 5.5363 25.7746 6.0856 25.2257C6.653 24.6578 7.5734 24.6574 8.1413 25.2249C8.1598 25.2434 8.1777 25.2623 8.1952 25.2817L13.8056 31.5153C13.877 31.5871 13.9577 31.649 14.0456 31.6993C17.2295 33.5236 19.1953 36.9106 19.2 40.5801V46.4001Z" fill="#FFB800"/>
<path d="M44.8 9.6001C43.0327 9.6001 41.6 11.0328 41.6 12.8001V23.2945C41.3407 23.2289 41.0739 23.1972 40.8064 23.2001C39.9678 23.2188 39.1746 23.5847 38.616 24.2105L33.0912 30.3489C29.6281 32.3664 27.4191 35.9972 27.2192 40.0001H27.2V47.2001C27.2 47.6419 27.5582 48.0001 28 48.0001H39.2C39.6418 48.0001 40 47.6419 40 47.2001V44.2057L47.0056 31.5081C47.6563 30.4016 47.9996 29.1414 48 27.8577V12.8001C48 11.0328 46.5673 9.6001 44.8 9.6001ZM46.4 27.8577C46.3988 28.8634 46.1281 29.8505 45.616 30.7161L38.496 43.6137C38.4319 43.7324 38.3989 43.8653 38.4 44.0001V46.4001H28.8V40.5801C28.8098 36.8963 30.7923 33.5 33.9952 31.6801C34.0697 31.6378 34.137 31.5838 34.1944 31.5201L39.8048 25.2801C40.3436 24.6836 41.2639 24.6369 41.8604 25.1757C42.4569 25.7145 42.5036 26.6348 41.9648 27.2313L35.408 34.4417L36.592 35.5201L43.1464 28.3105C44.179 27.174 44.2019 25.446 43.2 24.2825V12.8001C43.2 11.9164 43.9163 11.2001 44.8 11.2001C45.6837 11.2001 46.4 11.9164 46.4 12.8001V27.8577Z" fill="#FFB800"/>
<path d="M33.6 20H32C29.1302 20.0031 26.4425 21.4067 24.8 23.76V18.4H25.6C30.4577 18.3943 34.3943 14.4577 34.4 9.6C34.4 9.1582 34.0418 8.8 33.6 8.8H32C29.1302 8.8031 26.4425 10.2067 24.8 12.56V7.2H25.6C29.133 7.196 31.996 4.333 32 0.8C32 0.3582 31.6418 0 31.2 0H29.6C27.2702 0.0014 25.1253 1.2688 24 3.3088C22.8747 1.2688 20.7298 0.0014 18.4 0H16.8C16.3582 0 16 0.3582 16 0.8C16.004 4.333 18.867 7.196 22.4 7.2H23.2V12.56C21.5575 10.2067 18.8698 8.8031 16 8.8H14.4C13.9582 8.8 13.6 9.1582 13.6 9.6C13.6057 14.4577 17.5423 18.3943 22.4 18.4H23.2V23.76C21.5575 21.4067 18.8698 20.0031 16 20H14.4C13.9582 20 13.6 20.3582 13.6 20.8C13.6057 25.6577 17.5423 29.5943 22.4 29.6H23.2V36H24.8V29.6H25.6C30.4577 29.5943 34.3943 25.6577 34.4 20.8C34.4 20.3582 34.0418 20 33.6 20ZM32 10.4H32.756C32.344 14.0421 29.2653 16.7956 25.6 16.8H24.844C25.256 13.1579 28.3347 10.4044 32 10.4ZM29.6 1.6H30.3336C29.9401 3.908 27.9413 5.5971 25.6 5.6H24.8664C25.2599 3.292 27.2587 1.6029 29.6 1.6ZM22.4 5.6C20.0587 5.5971 18.0599 3.908 17.6664 1.6H18.4C20.7413 1.6029 22.7401 3.292 23.1336 5.6H22.4ZM22.4 16.8C18.7347 16.7956 15.656 14.0421 15.244 10.4H16C19.6653 10.4044 22.744 13.1579 23.156 16.8H22.4ZM22.4 28C18.7347 27.9956 15.656 25.2421 15.244 21.6H16C19.6653 21.6044 22.744 24.3579 23.156 28H22.4ZM25.6 28H24.844C25.256 24.3579 28.3347 21.6044 32 21.6H32.756C32.344 25.2421 29.2653 27.9956 25.6 28Z" fill="#61C325"/>
</g>
<defs>
<clipPath id="clip0">
<rect width="48" height="48" fill="white"/>
</clipPath>
</defs>
</svg>
