<svg width="60" height="60" viewBox="0 0 60 60" fill="none" xmlns="http://www.w3.org/2000/svg">
<g clip-path="url(#clip0)">
<path d="M41.1465 33.8294L33.0004 28.824C32.9012 28.763 32.787 28.7216 32.6718 28.7036L30.1215 28.2536C29.6497 28.1701 29.1863 28.4947 29.1031 28.9665C29.0199 29.4383 29.3442 29.9017 29.816 29.9849L32.2227 30.4096L40.2262 35.3274C40.6169 35.5675 41.1528 35.4509 41.4121 35.0735C41.6903 34.6685 41.5647 34.0866 41.1465 33.8294Z" fill="#FFB800"/>
<path d="M59.7086 34.1112C59.3769 33.7565 58.8207 33.7377 58.466 34.0691L54.9025 37.3996L38.5738 21.2884L59.6673 1.5203C60.0214 1.18831 60.0395 0.632018 59.7076 0.277877C59.3757 -0.0762632 58.8193 -0.0943101 58.4652 0.237565L36.7047 20.6308C36.3458 20.967 36.3383 21.5524 36.6884 21.8979L38.1327 23.3228L37.6717 23.7299L28.0177 22.8986C27.8687 22.8859 27.7139 22.9116 27.578 22.9744L19.9288 26.4582C19.9065 26.4524 19.8843 26.4468 19.8612 26.4427L15.4613 25.6662L15.817 24.7567C15.9929 24.3069 15.7732 23.7995 15.3248 23.6203L1.26047 17.9946C0.80953 17.814 0.298124 18.0335 0.11789 18.4844C-0.062462 18.9351 0.156796 19.4467 0.607616 19.6269L13.8619 24.9287L6.05109 44.8892L1.22742 43.1807C0.769686 43.0187 0.267421 43.2581 0.10535 43.7159C-0.0567199 44.1735 0.182929 44.6759 0.640546 44.838L6.26625 46.8304C6.70781 46.9868 7.20773 46.758 7.37824 46.322L8.68359 42.9862L12.1039 44.9029L11.7267 45.5144C10.6579 47.2467 11.1975 49.5258 12.93 50.5948C13.8462 51.1601 14.9835 51.2942 16.0072 50.9628C16.1714 52.0296 16.7984 52.9817 17.7177 53.5489C18.6339 54.1142 19.7711 54.2482 20.7949 53.9168C20.9592 54.9837 21.5859 55.9356 22.5053 56.5029C23.4243 57.07 24.5556 57.2035 25.5827 56.8719C25.7473 57.9383 26.3739 58.8899 27.293 59.457C28.6288 60.2812 30.3969 60.158 31.601 59.1488C31.9045 58.8944 32.1657 58.5907 32.3736 58.2537L32.9733 57.282L33.467 57.5853C34.8046 58.4071 36.5722 58.2805 37.7745 57.2691C38.0775 57.0141 38.3381 56.71 38.5454 56.3726C38.9575 55.7019 39.128 54.9503 39.083 54.2186C39.3621 54.2857 39.6478 54.3218 39.9361 54.3218C41.2127 54.3218 42.4204 53.6486 43.0884 52.5613C43.4909 51.9062 43.6747 51.1594 43.6281 50.4076C43.9065 50.4744 44.1916 50.5103 44.479 50.5103C45.7556 50.5103 46.9634 49.8371 47.6313 48.7498C48.0341 48.0942 48.2179 47.3469 48.1709 46.5946C48.4523 46.6616 48.7382 46.6967 49.0227 46.6967C50.2642 46.6967 51.4781 46.0716 52.1743 44.9385C53.24 43.204 52.6961 40.926 50.9616 39.8603L50.3592 39.4902L52.3794 37.3794L54.2691 39.2439C54.6005 39.5707 55.1467 39.578 55.4866 39.2604L59.6668 35.3537C60.0213 35.0222 60.0401 34.4659 59.7086 34.1112ZM16.5144 48.4683C15.9544 49.3757 14.7606 49.6583 13.8531 49.0987C12.9456 48.5387 12.6629 47.3449 13.2227 46.4374L18.1463 38.458C18.6957 37.5674 19.8749 37.2762 20.7752 37.8081C21.7069 38.3589 21.964 39.6361 21.4046 40.5428L16.5144 48.4683ZM21.3019 51.4224C20.7421 52.3297 19.5482 52.6125 18.6408 52.0527C17.7443 51.4995 17.4564 50.2894 18.0104 49.3915L21.9491 43.008C22.4986 42.1174 23.6777 41.8261 24.5781 42.358C25.5097 42.9088 25.7668 44.186 25.2074 45.0927L21.3019 51.4224ZM26.0899 54.3764C25.8185 54.816 25.3922 55.1237 24.8897 55.2428C24.3868 55.362 23.868 55.278 23.4285 55.0068C22.5321 54.4535 22.2442 53.2433 22.7982 52.3456L25.7523 47.5579C26.3018 46.6673 27.4811 46.376 28.3813 46.908C29.3129 47.4587 29.57 48.736 29.0107 49.6426L26.0899 54.3764ZM32.8137 54.1928L30.8775 57.3306C30.3243 58.2271 29.1142 58.5148 28.2162 57.9608C27.3198 57.4077 27.032 56.1974 27.5859 55.2996L29.5553 52.1079C30.1048 51.2175 31.284 50.9258 32.1843 51.4581C33.1159 52.0088 33.373 53.2861 32.8137 54.1928ZM48.8266 38.5485L44.4694 35.8711C44.0653 35.6228 43.5086 35.7558 43.2604 36.1599C43.012 36.5639 43.145 37.1207 43.5491 37.3689L50.0409 41.3578C50.9494 41.9161 51.2344 43.1093 50.6762 44.0179C50.1179 44.9263 48.9246 45.2113 48.0161 44.6531L41.0536 40.3749C40.64 40.1206 40.0986 40.2501 39.8446 40.6636C39.5905 41.0772 39.7198 41.6186 40.1333 41.8726L45.4982 45.1691C46.3957 45.7206 46.6857 46.9303 46.1334 47.8292C45.582 48.7267 44.3722 49.0166 43.4734 48.4644L38.6115 45.477C38.1979 45.2228 37.6566 45.3522 37.4025 45.7657C37.1484 46.1793 37.2777 46.7207 37.6913 46.9747L40.9554 48.9804C41.8528 49.532 42.143 50.7415 41.5907 51.6405C41.0392 52.5379 39.8295 52.828 38.9306 52.2757C38.9306 52.2757 36.06 50.5136 36.0332 50.5007C35.6318 50.3069 35.141 50.4448 34.9029 50.8324C34.6488 51.246 34.7781 51.7874 35.1916 52.0415L36.4126 52.7917C37.3211 53.35 37.6059 54.5432 37.0478 55.4517C36.4963 56.3493 35.2866 56.6392 34.3877 56.087L33.897 55.7854L34.3103 55.1154C34.8387 54.259 35.0026 53.2043 34.76 52.2218C34.5207 51.2522 33.9238 50.4434 33.0795 49.9443C32.4206 49.555 31.6836 49.3973 30.966 49.4457C31.1007 48.8667 31.1014 48.2567 30.9571 47.6718C30.7178 46.7022 30.1208 45.8933 29.2765 45.3942C28.6177 45.0048 27.8807 44.8471 27.163 44.8955C27.5255 43.3383 26.8582 41.6629 25.4735 40.8442C24.8147 40.4549 24.0777 40.2972 23.36 40.3455C23.7225 38.7883 23.0552 37.1128 21.6705 36.2942C19.9515 35.278 17.6998 35.8346 16.6509 37.5342L13.0287 43.4049L9.33047 41.3332L14.8076 27.3361L17.7898 27.8624C16.9416 28.9159 16.7031 30.3992 17.3007 31.7118C17.9193 33.0698 19.2629 33.8733 20.6661 33.8732C21.1772 33.8732 21.6962 33.7665 22.1909 33.5413L27.3387 31.1966C27.7746 30.9981 27.9729 30.4683 27.7743 30.0324C27.5757 29.5965 27.0459 29.398 26.61 29.5968L21.4621 31.9414C20.4919 32.3834 19.3426 31.9534 18.9006 30.983C18.4587 30.0126 18.8885 28.8635 19.8589 28.4215L28.0965 24.6698L37.8955 25.5136C37.9207 25.5158 37.9459 25.5169 37.971 25.5169C38.1843 25.5169 38.3913 25.4392 38.5527 25.2969L39.3868 24.5604L51.1274 36.1443L48.8266 38.5485Z" fill="#FFB800"/>
<line x1="0.7" y1="-0.7" x2="9.3" y2="-0.7" transform="matrix(0.137965 -0.990437 0.990437 0.137966 36.1122 13.7129)" stroke="#61C325" stroke-width="1.4" stroke-linecap="round"/>
<line x1="17.8793" y1="16.3779" x2="13.3365" y2="9.07561" stroke="#61C325" stroke-width="1.4" stroke-linecap="round"/>
<line x1="26.5991" y1="14.3349" x2="24.4185" y2="3.45124" stroke="#61C325" stroke-width="1.4" stroke-linecap="round"/>
</g>
<defs>
<clipPath id="clip0">
<rect width="60" height="60" fill="white"/>
</clipPath>
</defs>
</svg>
