<svg width="336" height="16" viewBox="0 0 336 16" fill="none" xmlns="http://www.w3.org/2000/svg">
<path d="M6.59732 13.416C7.70132 13.416 8.59732 13.328 9.28532 13.152C9.06132 11.504 8.24532 10.12 6.83732 9C6.67732 10.424 6.59732 11.896 6.59732 13.416ZM0.549316 7.704C0.549316 6.072 0.701316 4.504 1.00532 3H15.3813C15.1573 4.12 14.9013 5.088 14.6133 5.904C14.2293 5.92 13.6693 5.936 12.9333 5.952C12.2133 5.968 11.6613 5.984 11.2773 6C11.4533 5.456 11.5493 4.976 11.5653 4.56C9.91732 4.56 8.56532 4.608 7.50932 4.704C7.38132 5.28 7.22132 6.16 7.02932 7.344C10.2933 7.744 12.8213 8.536 14.6133 9.72C14.4213 11.752 14.0773 13.512 13.5813 15H1.53332C0.877316 12.696 0.549316 10.264 0.549316 7.704Z" fill="white"/>
<path d="M19.1746 14.928C17.7506 13.104 17.0386 11.232 17.0386 9.312C17.0386 7.392 17.8386 5.768 19.4386 4.44C21.0386 3.112 23.0866 2.448 25.5826 2.448C26.9106 2.448 28.2306 2.648 29.5426 3.048C30.6946 4.504 31.2706 6.064 31.2706 7.728C31.2706 9.824 30.4146 11.648 28.7026 13.2C26.9906 14.752 24.9186 15.528 22.4866 15.528C21.4466 15.528 20.3426 15.328 19.1746 14.928ZM22.8226 4.536C22.2626 5.496 21.9826 6.624 21.9826 7.92C21.9826 9.216 22.2626 10.416 22.8226 11.52C23.3986 12.608 24.1826 13.392 25.1746 13.872C25.9266 12.912 26.3026 11.8 26.3026 10.536C26.3026 9.272 25.9906 8.096 25.3666 7.008C24.7586 5.92 23.9106 5.096 22.8226 4.536Z" fill="white"/>
<path d="M43.2515 5.712C43.2515 4.944 42.6755 4.56 41.5235 4.56C41.0915 4.56 40.6115 4.608 40.0835 4.704C39.2835 7.984 38.8835 10.896 38.8835 13.44C38.8835 14.144 38.8995 14.664 38.9315 15H33.7235C33.4035 12.84 33.2435 10.696 33.2435 8.568C33.2435 6.424 33.3555 4.568 33.5795 3H46.4195C46.1475 4.568 45.8915 5.784 45.6515 6.648C44.8355 6.664 43.9715 6.696 43.0595 6.744C43.1875 6.376 43.2515 6.032 43.2515 5.712Z" fill="white"/>
<path d="M63.0404 14.808V15H57.4724C57.4084 14.088 57.2724 13.144 57.0644 12.168C56.0724 13.176 54.9524 14.12 53.7044 15H48.1124C48.0004 14.344 47.9444 13.48 47.9444 12.408C47.9444 11.32 48.1044 10.232 48.4244 9.144C49.5764 8.808 50.6804 8.24 51.7364 7.44C52.8084 6.64 53.5844 5.776 54.0644 4.848C53.6324 4.176 53.1764 3.56 52.6964 3H60.6644C62.2484 6.44 63.0404 10.376 63.0404 14.808ZM56.6324 10.416C56.2164 8.992 55.6724 7.648 55.0004 6.384C54.2484 8.592 53.8164 10.68 53.7044 12.648C54.8564 12.056 55.8324 11.312 56.6324 10.416Z" fill="white"/>
<path d="M76.2069 4.56C75.7909 7.088 75.5829 9.152 75.5829 10.752C75.5829 12.352 75.6469 13.768 75.7749 15H70.5429C69.9989 12.456 69.7269 9.72 69.7269 6.792C69.7269 6.296 69.7429 5.552 69.7749 4.56C68.4149 4.96 67.5829 5.88 67.2789 7.32L64.9029 7.176L65.7669 3H81.7269C81.4069 4.76 81.0389 6.2 80.6229 7.32L78.1989 7.176C78.2629 6.92 78.2949 6.664 78.2949 6.408C78.2949 5.784 78.1029 5.32 77.7189 5.016C77.3349 4.712 76.8309 4.56 76.2069 4.56Z" fill="white"/>
<path d="M83.3128 15C82.9448 13.464 82.7608 11.464 82.7608 9C82.7608 6.536 82.9848 4.536 83.4328 3H89.3608C89.1048 4.52 88.9368 5.888 88.8568 7.104C91.6568 7.424 94.1448 8.128 96.3208 9.216C96.2728 11.344 96.0168 13.272 95.5528 15H83.3128ZM88.8088 8.76C88.8088 10.456 89.0088 12.008 89.4088 13.416C90.2408 12.392 90.7688 11.056 90.9928 9.408C90.2888 9.04 89.5608 8.824 88.8088 8.76ZM103.761 5.448C103.761 8.792 103.489 11.976 102.945 15H97.4968C97.7048 13.432 97.8088 11.56 97.8088 9.384C97.8088 7.192 97.6648 5.064 97.3768 3H103.713C103.745 4.088 103.761 4.904 103.761 5.448Z" fill="white"/>
<path d="M111.779 12C111.779 12.912 111.819 13.912 111.899 15H106.619C105.963 12.456 105.635 9.752 105.635 6.888C105.635 5.432 105.723 4.136 105.899 3H118.907C119.371 4.808 119.627 6.96 119.675 9.456C117.307 10.512 114.675 11.2 111.779 11.52V12ZM111.803 9.864C112.827 9.736 113.683 9.48 114.371 9.096C114.115 7.4 113.427 5.896 112.307 4.584C112.051 6.168 111.883 7.928 111.803 9.864Z" fill="white"/>
<path d="M131.46 4.464C130.9 4.368 130.356 4.32 129.828 4.32C129.316 4.32 128.692 4.408 127.956 4.584C127.716 5.592 127.596 6.576 127.596 7.536C127.596 10.016 128.7 11.92 130.908 13.248C132.38 12.272 133.708 11.056 134.892 9.6C134.94 10.24 134.98 11.216 135.012 12.528C133.828 13.456 132.62 14.184 131.388 14.712C130.156 15.24 128.62 15.504 126.78 15.504H126.228C124.788 14.88 123.652 13.96 122.82 12.744C122.004 11.528 121.596 10.248 121.596 8.904C121.596 7.112 122.332 5.592 123.804 4.344C125.276 3.08 127.412 2.448 130.212 2.448C131.78 2.448 133.42 2.648 135.132 3.048C134.876 4.056 134.556 5.008 134.172 5.904C133.164 6 132.124 6.048 131.052 6.048C131.212 5.6 131.348 5.072 131.46 4.464Z" fill="white"/>
<path d="M149.528 2.832H150.32C151.344 2.832 152.104 2.712 152.6 2.472C151.896 3.512 151.216 4.416 150.56 5.184H150.176C149.36 5.184 148.568 5.056 147.8 4.8C146.712 5.696 145.84 6.888 145.184 8.376C146.88 8.808 148.768 9.064 150.848 9.144C151.328 10.36 151.656 12.312 151.832 15H145.616C145.344 13.816 144.928 12.728 144.368 11.736C143.824 10.728 143.256 10.04 142.664 9.672C142.552 10.984 142.496 12.04 142.496 12.84C142.496 13.64 142.52 14.36 142.568 15H137.288C136.984 12.648 136.832 10.664 136.832 9.048C136.832 7.416 136.952 5.4 137.192 3H143.864C143.384 4.984 143.056 6.648 142.88 7.992C143.6 6.808 144.352 5.816 145.136 5.016C145.936 4.2 146.88 3.512 147.968 2.952C148.384 2.872 148.904 2.832 149.528 2.832Z" fill="white"/>
<path d="M169.376 14.808V15H163.808C163.744 14.088 163.608 13.144 163.4 12.168C162.408 13.176 161.288 14.12 160.04 15H154.448C154.336 14.344 154.28 13.48 154.28 12.408C154.28 11.32 154.44 10.232 154.76 9.144C155.912 8.808 157.016 8.24 158.072 7.44C159.144 6.64 159.92 5.776 160.4 4.848C159.968 4.176 159.512 3.56 159.032 3H167C168.584 6.44 169.376 10.376 169.376 14.808ZM162.968 10.416C162.552 8.992 162.008 7.648 161.336 6.384C160.584 8.592 160.152 10.68 160.04 12.648C161.192 12.056 162.168 11.312 162.968 10.416Z" fill="white"/>
<path d="M172.871 7.296C172.871 6.032 173.047 4.6 173.399 3H185.927C186.151 4.696 186.263 6.544 186.263 8.544C186.263 10.528 186.031 12.68 185.567 15H180.335C180.431 13.88 180.479 12.912 180.479 12.096C180.479 11.264 180.471 10.712 180.455 10.44C179.095 11.016 178.247 12.536 177.911 15H171.719C171.847 13.192 172.175 11.616 172.703 10.272C174.591 10.192 176.247 9.968 177.671 9.6C175.815 9.216 174.215 8.68 172.871 7.992V7.296ZM179.951 4.608C179.103 5.696 178.535 6.768 178.247 7.824C178.791 8.32 179.503 8.632 180.383 8.76C180.287 7.4 180.143 6.016 179.951 4.608Z" fill="white"/>
<path d="M206.131 4.464C205.571 4.368 205.027 4.32 204.499 4.32C203.987 4.32 203.363 4.408 202.627 4.584C202.387 5.592 202.267 6.576 202.267 7.536C202.267 10.016 203.371 11.92 205.579 13.248C207.051 12.272 208.379 11.056 209.563 9.6C209.611 10.24 209.651 11.216 209.683 12.528C208.499 13.456 207.291 14.184 206.059 14.712C204.827 15.24 203.291 15.504 201.451 15.504H200.899C199.459 14.88 198.323 13.96 197.491 12.744C196.675 11.528 196.267 10.248 196.267 8.904C196.267 7.112 197.003 5.592 198.475 4.344C199.947 3.08 202.083 2.448 204.883 2.448C206.451 2.448 208.091 2.648 209.803 3.048C209.547 4.056 209.227 5.008 208.843 5.904C207.835 6 206.795 6.048 205.723 6.048C205.883 5.6 206.019 5.072 206.131 4.464Z" fill="white"/>
<path d="M220.48 7.824L222.736 7.968C222.96 7.968 223.128 7.96 223.24 7.944L222.112 10.056H221.896C221.592 10.056 221.16 9.976 220.6 9.816C220.04 9.64 219.64 9.552 219.4 9.552C218.744 9.552 218.224 9.976 217.84 10.824C217.776 11.608 217.728 12.392 217.696 13.176C218.528 13.336 219.183 13.416 219.663 13.416H219.88C220.568 13.416 221.112 13.264 221.512 12.96C221.928 12.656 222.224 12.112 222.4 11.328L225.28 11.448C225.04 12.824 224.72 14.008 224.32 15H212.536C212.216 12.84 212.056 10.696 212.056 8.568C212.056 6.44 212.168 4.584 212.392 3H225.256C224.968 4.728 224.712 5.944 224.488 6.648C223.544 6.696 222.68 6.728 221.896 6.744C222.024 6.376 222.088 6.032 222.088 5.712C222.088 4.944 221.511 4.56 220.359 4.56C219.927 4.56 219.448 4.608 218.92 4.704C218.568 6.224 218.296 7.56 218.104 8.712C218.744 8.12 219.536 7.824 220.48 7.824Z" fill="white"/>
<path d="M242.389 4.104C242.389 3.704 242.325 3.336 242.197 3H249.037C249.613 4.568 250.045 6.472 250.333 8.712C250.621 10.952 250.765 13.048 250.765 15H245.221C245.109 12.024 244.637 9.248 243.805 6.672C242.397 9.424 241.645 12.2 241.549 15H236.845C236.445 11.864 235.645 9.08 234.445 6.648C233.581 8.696 233.149 10.584 233.149 12.312C233.149 13.304 233.261 14.2 233.485 15H227.653C227.541 14.344 227.485 13.48 227.485 12.408C227.485 11.32 227.645 10.232 227.965 9.144C229.085 8.808 230.165 8.256 231.205 7.488C232.261 6.72 233.045 5.88 233.557 4.968C233.237 4.424 232.797 3.768 232.237 3H239.821C240.429 4.648 240.885 6.44 241.189 8.376C241.989 6.936 242.389 5.512 242.389 4.104Z" fill="white"/>
<path d="M261.823 7.824L264.079 7.968C264.303 7.968 264.471 7.96 264.583 7.944L263.455 10.056H263.239C262.935 10.056 262.503 9.976 261.943 9.816C261.383 9.64 260.983 9.552 260.743 9.552C260.087 9.552 259.567 9.976 259.183 10.824C259.119 11.608 259.071 12.392 259.039 13.176C259.871 13.336 260.527 13.416 261.007 13.416H261.223C261.911 13.416 262.455 13.264 262.855 12.96C263.271 12.656 263.567 12.112 263.743 11.328L266.623 11.448C266.383 12.824 266.063 14.008 265.663 15H253.879C253.559 12.84 253.399 10.696 253.399 8.568C253.399 6.44 253.511 4.584 253.735 3H266.599C266.311 4.728 266.055 5.944 265.831 6.648C264.887 6.696 264.023 6.728 263.239 6.744C263.367 6.376 263.431 6.032 263.431 5.712C263.431 4.944 262.855 4.56 261.703 4.56C261.271 4.56 260.791 4.608 260.263 4.704C259.911 6.224 259.639 7.56 259.447 8.712C260.087 8.12 260.879 7.824 261.823 7.824Z" fill="white"/>
<path d="M277.781 9.768C277.717 8.92 277.685 7.888 277.685 6.672C277.685 5.44 277.741 4.216 277.853 3H284.477C283.885 5.96 283.589 8.792 283.589 11.496C283.589 12.76 283.645 13.928 283.757 15H278.501C278.261 13.768 278.085 12.664 277.973 11.688C277.173 11.176 275.797 10.92 273.845 10.92C272.917 10.92 272.005 10.976 271.109 11.088C270.021 8.64 269.301 5.944 268.949 3H275.069C275.069 7.144 275.973 9.4 277.781 9.768Z" fill="white"/>
<path d="M299.035 2.832H299.827C300.851 2.832 301.611 2.712 302.107 2.472C301.403 3.512 300.723 4.416 300.067 5.184H299.683C298.867 5.184 298.075 5.056 297.307 4.8C296.219 5.696 295.347 6.888 294.691 8.376C296.387 8.808 298.275 9.064 300.355 9.144C300.835 10.36 301.163 12.312 301.339 15H295.123C294.851 13.816 294.435 12.728 293.875 11.736C293.331 10.728 292.763 10.04 292.171 9.672C292.059 10.984 292.003 12.04 292.003 12.84C292.003 13.64 292.027 14.36 292.075 15H286.795C286.491 12.648 286.339 10.664 286.339 9.048C286.339 7.416 286.459 5.4 286.699 3H293.371C292.891 4.984 292.563 6.648 292.387 7.992C293.107 6.808 293.859 5.816 294.643 5.016C295.443 4.2 296.387 3.512 297.475 2.952C297.891 2.872 298.411 2.832 299.035 2.832Z" fill="white"/>
<path d="M318.884 14.808V15H313.316C313.252 14.088 313.116 13.144 312.908 12.168C311.916 13.176 310.796 14.12 309.548 15H303.956C303.844 14.344 303.788 13.48 303.788 12.408C303.788 11.32 303.948 10.232 304.268 9.144C305.42 8.808 306.524 8.24 307.58 7.44C308.652 6.64 309.428 5.776 309.908 4.848C309.476 4.176 309.02 3.56 308.54 3H316.508C318.092 6.44 318.884 10.376 318.884 14.808ZM312.476 10.416C312.06 8.992 311.516 7.648 310.844 6.384C310.092 8.592 309.66 10.68 309.548 12.648C310.7 12.056 311.676 11.312 312.476 10.416Z" fill="white"/>
<path d="M329.03 0.919998H327.174V6H326.402V0.919998H324.542V0.267998H329.03V0.919998Z" fill="white"/>
<path d="M335.844 0.267998V6H335.164V1.788C335.164 1.732 335.166 1.672 335.168 1.608C335.174 1.544 335.179 1.47866 335.184 1.412L333.216 4.996C333.155 5.116 333.062 5.176 332.936 5.176H332.824C332.699 5.176 332.606 5.116 332.544 4.996L330.536 1.396C330.552 1.53733 330.56 1.668 330.56 1.788V6H329.88V0.267998H330.452C330.522 0.267998 330.575 0.274664 330.612 0.287998C330.65 0.301331 330.686 0.338664 330.72 0.399998L332.7 3.928C332.732 3.992 332.763 4.05866 332.792 4.128C332.824 4.19733 332.854 4.268 332.88 4.34C332.907 4.268 332.935 4.19733 332.964 4.128C332.994 4.056 333.026 3.988 333.06 3.924L335.004 0.399998C335.036 0.338664 335.071 0.301331 335.108 0.287998C335.148 0.274664 335.203 0.267998 335.272 0.267998H335.844Z" fill="white"/>
</svg>
