<svg width="48" height="48" viewBox="0 0 48 48" fill="none" xmlns="http://www.w3.org/2000/svg">
<rect x="1" y="1" width="46" height="46" rx="23" fill="#FFB800" stroke="#FFB800" stroke-width="2"/>
<path d="M36.7915 31.3296L31.3266 27.6849C30.6331 27.2261 29.7035 27.377 29.1908 28.0318L27.5989 30.0787C27.3943 30.3484 27.0224 30.4267 26.7265 30.2623L26.4237 30.0953C25.4199 29.5481 24.1709 28.8669 21.6544 26.3494C19.1379 23.8318 18.4554 22.5818 17.9082 21.5797L17.7422 21.2769C17.5755 20.981 17.6523 20.6075 17.9221 20.4013L19.9675 18.8098C20.622 18.297 20.7731 17.3675 20.3149 16.6738L16.6704 11.2085C16.2008 10.502 15.2586 10.2899 14.5315 10.727L12.2463 12.0998C11.5283 12.522 11.0015 13.2057 10.7764 14.0077C9.95347 17.0062 10.5725 22.1813 18.1953 29.8055C24.2591 35.8692 28.7733 37.4999 31.876 37.4999C32.5901 37.503 33.3014 37.4101 33.9907 37.2237C34.7928 36.9988 35.4766 36.4719 35.8984 35.7537L37.2725 33.4696C37.7102 32.7424 37.4983 31.7995 36.7915 31.3296ZM36.4972 33.0079L35.1263 35.2933C34.8234 35.8118 34.3316 36.193 33.754 36.357C30.986 37.1171 26.1501 36.4876 18.8319 29.1689C11.5138 21.8502 10.8844 17.0144 11.6443 14.2458C11.8086 13.6674 12.1902 13.175 12.7093 12.8715L14.9945 11.5005C15.31 11.3107 15.7189 11.4027 15.9227 11.7093L17.9024 14.6817L19.5641 17.1741C19.763 17.475 19.6977 17.8783 19.4138 18.101L17.3679 19.6925C16.7453 20.1686 16.5675 21.0301 16.9509 21.7138L17.1133 22.009C17.6884 23.0637 18.4033 24.3758 21.0133 26.9856C23.6234 29.5954 24.935 30.3104 25.9892 30.8854L26.2847 31.0483C26.9683 31.4316 27.8298 31.2539 28.3059 30.6312L29.8972 28.5852C30.12 28.3015 30.5231 28.2362 30.8241 28.435L36.2886 32.0797C36.5953 32.2833 36.6873 32.6925 36.4972 33.0079Z" fill="#222222"/>
<path d="M25.95 14.4C30.173 14.4047 33.5953 17.827 33.6 22.05C33.6 22.2986 33.8015 22.5 34.05 22.5C34.2986 22.5 34.5 22.2986 34.5 22.05C34.4948 17.3301 30.6699 13.5052 25.95 13.5C25.7014 13.5 25.5 13.7014 25.5 13.95C25.5 14.1985 25.7014 14.4 25.95 14.4Z" fill="#61C325"/>
<path d="M25.9286 17.3571C28.5309 17.3602 30.6398 19.4691 30.6429 22.0714C30.6429 22.3081 30.8348 22.5 31.0714 22.5C31.3081 22.5 31.5 22.3081 31.5 22.0714C31.4964 18.9959 29.0041 16.5035 25.9286 16.5C25.6919 16.5 25.5 16.6919 25.5 16.9286C25.5 17.1653 25.6919 17.3571 25.9286 17.3571Z" fill="#61C325"/>
<path d="M25.875 20.25C26.91 20.2512 27.7487 21.09 27.75 22.125C27.75 22.3321 27.9179 22.5 28.125 22.5C28.3321 22.5 28.5 22.3321 28.5 22.125C28.4983 20.6759 27.3241 19.5016 25.875 19.5C25.6679 19.5 25.5 19.6679 25.5 19.875C25.5 20.0821 25.6679 20.25 25.875 20.25Z" fill="#61C325"/>
</svg>
